<svg width="320" height="320" viewBox="0 0 320 320" xmlns="http://www.w3.org/2000/svg" role="img" aria-label="Movie reel, drink, and popcorn">
  <defs>
    <linearGradient id="reelG" x1="0" y1="0" x2="1" y2="1">
      <stop offset="0" stop-color="#d0d0d0"/>
      <stop offset="1" stop-color="#8f8f8f"/>
    </linearGradient>
    <linearGradient id="cupG" x1="0" y1="0" x2="0" y2="1">
      <stop offset="0" stop-color="#ff2f2f"/>
      <stop offset="1" stop-color="#cc1212"/>
    </linearGradient>
    <linearGradient id="popG" x1="0" y1="0" x2="0" y2="1">
      <stop offset="0" stop-color="#ff3a3a"/>
      <stop offset="1" stop-color="#cb1111"/>
    </linearGradient>
  </defs>

  <circle cx="126" cy="98" r="78" fill="url(#reelG)" stroke="#6d6d6d" stroke-width="6"/>
  <circle cx="126" cy="98" r="16" fill="#454545"/>
  <g fill="#2a2a2a">
    <path d="M126 34 l18 36 a40 40 0 0 1 -36 0z"/>
    <path d="M182 98 l-36 18 a40 40 0 0 1 0 -36z"/>
    <path d="M126 162 l-18 -36 a40 40 0 0 1 36 0z"/>
    <path d="M70 98 l36 -18 a40 40 0 0 1 0 36z"/>
    <path d="M166 58 l-24 32 a40 40 0 0 0 24 24z"/>
  </g>

  <path d="M78 164 L150 210" stroke="#efefef" stroke-width="8"/>
  <path d="M78 164 L150 210" stroke="#1f1f1f" stroke-width="4" stroke-dasharray="6 6"/>

  <path d="M44 170 h52 l-8 104 h-36z" fill="url(#cupG)" stroke="#941010" stroke-width="3"/>
  <ellipse cx="70" cy="169" rx="28" ry="7" fill="#f3f3f3" stroke="#d8d8d8" stroke-width="2"/>
  <path d="M74 158 c9 -24 28 -8 14 8" fill="none" stroke="#efefef" stroke-width="4" stroke-linecap="round"/>

  <path d="M170 150 h92 l-12 126 h-68z" fill="url(#popG)" stroke="#941010" stroke-width="3"/>
  <g fill="#fff4d0" stroke="#f2dc95" stroke-width="1.6">
    <circle cx="174" cy="154" r="16"/>
    <circle cx="190" cy="146" r="16"/>
    <circle cx="206" cy="154" r="17"/>
    <circle cx="224" cy="147" r="16"/>
    <circle cx="242" cy="154" r="16"/>
    <circle cx="258" cy="147" r="16"/>
  </g>

  <rect x="182" y="152" width="10" height="118" fill="#fff"/>
  <rect x="206" y="152" width="10" height="118" fill="#fff"/>
  <rect x="230" y="152" width="10" height="118" fill="#fff"/>
</svg>
